<?xml version="1.0" encoding="UTF-8"?>
<!DOCTYPE svg PUBLIC "-//W3C//DTD SVG 1.1//EN" "http://www.w3.org/Graphics/SVG/1.1/DTD/svg11.dtd">
<svg viewBox="0 0 512 512" xmlns="http://www.w3.org/2000/svg" version="1.1" width="32px" height="32px" style="shape-rendering:geometricPrecision; text-rendering:geometricPrecision; image-rendering:optimizeQuality; fill-rule:evenodd; clip-rule:evenodd" xmlns:xlink="http://www.w3.org/1999/xlink">
<g><path style="opacity:0.999" fill="#fefefe" d="M 40.5,-0.5 C 183.833,-0.5 327.167,-0.5 470.5,-0.5C 492.167,5.16667 505.833,18.8333 511.5,40.5C 511.5,183.833 511.5,327.167 511.5,470.5C 505.833,492.167 492.167,505.833 470.5,511.5C 327.167,511.5 183.833,511.5 40.5,511.5C 18.8333,505.833 5.16667,492.167 -0.5,470.5C -0.5,327.167 -0.5,183.833 -0.5,40.5C 5.5,19.1667 19.1667,5.5 40.5,-0.5 Z"/></g>
<g><path style="opacity:1" fill="#121144" d="M 59.5,119.5 C 82.5024,119.333 105.502,119.5 128.5,120C 142.259,123.678 146.092,131.845 140,144.5C 137.374,147.231 134.207,149.064 130.5,150C 106.5,150.667 82.5,150.667 58.5,150C 48.121,144.861 45.2876,137.028 50,126.5C 52.7901,123.535 55.9567,121.202 59.5,119.5 Z"/></g>
<g><path style="opacity:1" fill="#111144" d="M 180.5,119.5 C 223.501,119.333 266.501,119.5 309.5,120C 320.318,122.148 324.818,128.648 323,139.5C 320.635,145.202 316.469,148.702 310.5,150C 266.833,150.667 223.167,150.667 179.5,150C 172.196,147.692 168.196,142.692 167.5,135C 168.803,127.204 173.136,122.038 180.5,119.5 Z"/></g>
<g><path style="opacity:1" fill="#121144" d="M 380.5,119.5 C 403.502,119.333 426.502,119.5 449.5,120C 463.259,123.678 467.092,131.845 461,144.5C 458.374,147.231 455.207,149.064 451.5,150C 427.5,150.667 403.5,150.667 379.5,150C 369.121,144.861 366.288,137.028 371,126.5C 373.79,123.535 376.957,121.202 380.5,119.5 Z"/></g>
<g><path style="opacity:1" fill="#131245" d="M 38.5,159.5 C 49.505,159.333 60.505,159.5 71.5,160C 82.7401,165.16 85.5735,173.327 80,184.5C 78.0616,187.106 75.5616,188.939 72.5,190C 60.8333,190.667 49.1667,190.667 37.5,190C 27.5911,184.605 25.0911,176.772 30,166.5C 32.4412,163.546 35.2745,161.213 38.5,159.5 Z"/></g>
<g><path style="opacity:1" fill="#141345" d="M 118.5,159.5 C 129.505,159.333 140.505,159.5 151.5,160C 162.33,164.818 165.497,172.651 161,183.5C 158.713,186.462 155.88,188.629 152.5,190C 140.071,190.959 127.737,190.626 115.5,189C 107.249,183.11 105.416,175.61 110,166.5C 112.441,163.546 115.275,161.213 118.5,159.5 Z"/></g>
<g><path style="opacity:1" fill="#131345" d="M 199.5,159.5 C 210.172,159.333 220.839,159.5 231.5,160C 243.894,165.293 246.728,173.793 240,185.5C 237.742,187.43 235.242,188.93 232.5,190C 220.071,190.959 207.737,190.626 195.5,189C 183.906,177.324 185.24,167.49 199.5,159.5 Z"/></g>
<g><path style="opacity:1" fill="#131245" d="M 279.5,159.5 C 289.839,159.334 300.172,159.5 310.5,160C 322.874,164.256 326.374,172.422 321,184.5C 319.062,187.106 316.562,188.939 313.5,190C 301.5,190.667 289.5,190.667 277.5,190C 268.644,184.664 266.144,177.164 270,167.5C 272.735,164.231 275.901,161.564 279.5,159.5 Z"/></g>
<g><path style="opacity:1" fill="#131245" d="M 359.5,159.5 C 370.505,159.333 381.505,159.5 392.5,160C 403.74,165.16 406.573,173.327 401,184.5C 399.062,187.106 396.562,188.939 393.5,190C 381.833,190.667 370.167,190.667 358.5,190C 348.591,184.605 346.091,176.772 351,166.5C 353.441,163.546 356.275,161.213 359.5,159.5 Z"/></g>
<g><path style="opacity:1" fill="#141345" d="M 439.5,159.5 C 450.505,159.333 461.505,159.5 472.5,160C 483.33,164.818 486.497,172.651 482,183.5C 479.713,186.462 476.88,188.629 473.5,190C 461.071,190.959 448.737,190.626 436.5,189C 428.249,183.11 426.416,175.61 431,166.5C 433.441,163.546 436.275,161.213 439.5,159.5 Z"/></g>
<g><path style="opacity:1" fill="#161447" d="M 39.5,199.5 C 57.5556,199.054 75.5556,199.554 93.5,201C 102.479,206.215 104.979,213.715 101,223.5C 98.3133,227.194 94.8133,229.694 90.5,231C 72.4341,231.959 54.4341,231.626 36.5,230C 27.4266,224.109 25.2599,216.276 30,206.5C 32.529,203.115 35.6956,200.782 39.5,199.5 Z"/></g>
<g><path style="opacity:1" fill="#161547" d="M 199.5,199.5 C 210.172,199.333 220.839,199.5 231.5,200C 243.894,205.293 246.728,213.793 240,225.5C 237.592,227.956 234.759,229.789 231.5,231C 220.833,231.667 210.167,231.667 199.5,231C 187.239,224.888 184.739,216.055 192,204.5C 194.479,202.686 196.979,201.019 199.5,199.5 Z"/></g>
<g><path style="opacity:1" fill="#161547" d="M 440.5,199.5 C 451.172,199.333 461.839,199.5 472.5,200C 483.317,204.795 486.484,212.629 482,223.5C 479.252,227.567 475.419,230.067 470.5,231C 460.5,231.667 450.5,231.667 440.5,231C 431.343,227.188 427.51,220.355 429,210.5C 431.437,205.226 435.271,201.56 440.5,199.5 Z"/></g>
<g><path style="opacity:1" fill="#161447" d="M 59.5,239.5 C 76.17,239.333 92.8367,239.5 109.5,240C 120.741,242.976 124.908,250.143 122,261.5C 119.673,266.423 115.84,269.59 110.5,271C 92.4341,271.959 74.4341,271.626 56.5,270C 47.4266,264.109 45.2599,256.276 50,246.5C 52.8249,243.524 55.9915,241.191 59.5,239.5 Z"/></g>
<g><path style="opacity:1" fill="#161547" d="M 201.5,239.5 C 224.169,239.333 246.836,239.5 269.5,240C 284.498,245.184 287.498,254.184 278.5,267C 275.618,268.608 272.618,269.941 269.5,271C 246.833,271.667 224.167,271.667 201.5,271C 189.164,267.163 185.33,259.329 190,247.5C 193.15,243.689 196.983,241.023 201.5,239.5 Z"/></g>
<g><path style="opacity:1" fill="#161547" d="M 400.5,239.5 C 417.17,239.333 433.837,239.5 450.5,240C 464.587,244.997 467.754,253.83 460,266.5C 457.749,268.377 455.249,269.877 452.5,271C 435.167,271.667 417.833,271.667 400.5,271C 389.085,266.095 385.918,257.928 391,246.5C 393.825,243.524 396.992,241.191 400.5,239.5 Z"/></g>
<g><path style="opacity:1" fill="#131245" d="M 97.5,280.5 C 115.836,280.333 134.17,280.5 152.5,281C 163.796,286.435 166.296,294.601 160,305.5C 157.592,307.956 154.759,309.789 151.5,311C 133.833,311.667 116.167,311.667 98.5,311C 86.9663,305.111 84.4663,296.611 91,285.5C 93.3256,283.934 95.4922,282.268 97.5,280.5 Z"/></g>
<g><path style="opacity:1" fill="#131345" d="M 197.5,280.5 C 210.241,280.059 222.908,280.559 235.5,282C 243.918,287.754 245.751,295.254 241,304.5C 238.441,307.531 235.274,309.698 231.5,311C 219.762,311.935 208.095,311.602 196.5,310C 184.182,299.729 184.515,289.895 197.5,280.5 Z"/></g>
<g><path style="opacity:1" fill="#131345" d="M 438.5,280.5 C 451.241,280.059 463.908,280.559 476.5,282C 485.231,288.452 486.731,296.285 481,305.5C 478.592,307.956 475.759,309.789 472.5,311C 461.5,311.667 450.5,311.667 439.5,311C 428.531,304.955 426.031,296.455 432,285.5C 434.326,283.934 436.492,282.268 438.5,280.5 Z"/></g>
<g><path style="opacity:1" fill="#121244" d="M 37.5,320.5 C 48.8382,320.333 60.1716,320.5 71.5,321C 81.8915,325.296 85.0582,332.796 81,343.5C 78.6875,347.58 75.1875,350.08 70.5,351C 59.8333,351.667 49.1667,351.667 38.5,351C 26.9663,345.111 24.4663,336.611 31,325.5C 32.9651,323.45 35.1318,321.783 37.5,320.5 Z"/></g>
<g><path style="opacity:1" fill="#131245" d="M 117.5,320.5 C 129.171,320.333 140.838,320.5 152.5,321C 163.819,326.471 166.319,334.638 160,345.5C 157.592,347.956 154.759,349.789 151.5,351C 140.5,351.667 129.5,351.667 118.5,351C 107.876,345.928 105.043,338.095 110,327.5C 112.37,324.961 114.87,322.628 117.5,320.5 Z"/></g>
<g><path style="opacity:1" fill="#131245" d="M 197.5,320.5 C 210.241,320.059 222.908,320.559 235.5,322C 245.713,330.599 246.046,339.599 236.5,349C 234.913,349.862 233.246,350.529 231.5,351C 220.5,351.667 209.5,351.667 198.5,351C 188.51,345.693 185.676,337.859 190,327.5C 192.396,324.933 194.896,322.6 197.5,320.5 Z"/></g>
<g><path style="opacity:1" fill="#121244" d="M 278.5,320.5 C 290.909,320.061 303.242,320.561 315.5,322C 323.873,327.801 325.707,335.301 321,344.5C 318.635,347.869 315.468,350.036 311.5,351C 299.736,351.957 288.07,351.623 276.5,350C 268.185,343.799 266.352,335.966 271,326.5C 273.114,323.879 275.614,321.879 278.5,320.5 Z"/></g>
<g><path style="opacity:1" fill="#121244" d="M 358.5,320.5 C 369.838,320.333 381.172,320.5 392.5,321C 402.892,325.296 406.058,332.796 402,343.5C 399.688,347.58 396.188,350.08 391.5,351C 380.833,351.667 370.167,351.667 359.5,351C 347.966,345.111 345.466,336.611 352,325.5C 353.965,323.45 356.132,321.783 358.5,320.5 Z"/></g>
<g><path style="opacity:1" fill="#131245" d="M 438.5,320.5 C 450.171,320.333 461.838,320.5 473.5,321C 484.819,326.471 487.319,334.638 481,345.5C 478.592,347.956 475.759,349.789 472.5,351C 461.5,351.667 450.5,351.667 439.5,351C 428.876,345.928 426.043,338.095 431,327.5C 433.37,324.961 435.87,322.628 438.5,320.5 Z"/></g>
<g><path style="opacity:1" fill="#121144" d="M 59.5,360.5 C 82.8357,360.333 106.169,360.5 129.5,361C 138.698,363.235 143.198,369.068 143,378.5C 141.5,385.333 137.333,389.5 130.5,391C 106.833,391.667 83.1667,391.667 59.5,391C 48.3065,386.421 45.1399,378.587 50,367.5C 52.529,364.115 55.6956,361.782 59.5,360.5 Z"/></g>
<g><path style="opacity:1" fill="#111144" d="M 179.5,360.5 C 223.501,360.333 267.501,360.5 311.5,361C 325.137,367.392 327.137,376.392 317.5,388C 315.283,389.275 312.949,390.275 310.5,391C 266.833,391.667 223.167,391.667 179.5,391C 168.063,385.687 165.23,377.521 171,366.5C 173.637,364.109 176.47,362.109 179.5,360.5 Z"/></g>
<g><path style="opacity:1" fill="#121144" d="M 380.5,360.5 C 403.836,360.333 427.169,360.5 450.5,361C 459.698,363.235 464.198,369.068 464,378.5C 462.5,385.333 458.333,389.5 451.5,391C 427.833,391.667 404.167,391.667 380.5,391C 369.307,386.421 366.14,378.587 371,367.5C 373.529,364.115 376.696,361.782 380.5,360.5 Z"/></g>
</svg>
